<svg width="71" height="28" viewBox="0 0 71 28" xmlns="http://www.w3.org/2000/svg">
	<g fill="none" fill-rule="evenodd">
		<path fill="#FEFEFE" d="M8.7 24L3 7h4l3.4 11.5L14.2 7H17l3.7 11.5L24.2 7H28l-5.7 17h-3L15.4 13 11.8 24m16.5 0V12h3.4v2.7c1-3 4.6-2.7 4.6-2.7v3.4s-4.6-.4-4.6 3.4V24h-3.4zm9.6 0v-7.4l3.3-3.2V24m2.8 0V10.8l3.5-3.4v9l4.2-4.3H56l-5.4 5.5 6 6.6h-4.3l-4.8-5v5"/>
		<path d="M64.6 16.7c0-1.3-1-2.4-2.5-2.4s-2.5 1-2.7 2.4h5.3zM58 22.5c-1.4-1-2-2.7-2-4.5 0-1.8.6-3.3 1.7-4.5 1.2-1.2 2.7-1.8 4.5-1.8 1.8 0 3 .6 4 1.8 1.2 1.3 1.7 2.7 1.7 4.5v1h-8.7c.4 1.5 2 2.4 4 2.4 1.4 0 2.6-.4 4-1V23c-1.2.8-2.7 1.2-4.7 1.2-1.8 0-3.4-.5-4.7-1.7z" fill="#FEFEFE"/>
		<path fill="#00A550" d="M44.8 3l-7.6 7.6 2.2 2.3 10-10"/>
		<path fill="#A5CE38" d="M38 7h-4.5l6 6 2.2-2.4"/>
	</g>
</svg>
